<svg xmlns="http://www.w3.org/2000/svg" xmlns:xlink="http://www.w3.org/1999/xlink" width="200" zoomAndPan="magnify" viewBox="0 0 150 74.999997" height="100" preserveAspectRatio="xMidYMid meet" version="1.0"><defs><g/><clipPath id="553df90471"><path d="M 0 20.214844 L 150 20.214844 L 150 56.515625 L 0 56.515625 Z M 0 20.214844 " clip-rule="nonzero"/></clipPath><clipPath id="ba9948072c"><path d="M 0.0195312 20.214844 L 149.980469 20.214844 L 149.980469 56.214844 L 0.0195312 56.214844 Z M 0.0195312 20.214844 " clip-rule="nonzero"/></clipPath><clipPath id="5505a40173"><path d="M 47.820312 39.003906 L 70.296875 39.003906 L 70.296875 45.617188 L 47.820312 45.617188 Z M 47.820312 39.003906 " clip-rule="nonzero"/></clipPath><clipPath id="a3955a3e46"><path d="M 51.125 39.003906 L 66.964844 39.003906 C 67.839844 39.003906 68.679688 39.351562 69.300781 39.972656 C 69.921875 40.59375 70.269531 41.433594 70.269531 42.308594 C 70.269531 43.1875 69.921875 44.027344 69.300781 44.648438 C 68.679688 45.269531 67.839844 45.617188 66.964844 45.617188 L 51.125 45.617188 C 50.25 45.617188 49.40625 45.269531 48.789062 44.648438 C 48.167969 44.027344 47.820312 43.1875 47.820312 42.308594 C 47.820312 41.433594 48.167969 40.59375 48.789062 39.972656 C 49.40625 39.351562 50.25 39.003906 51.125 39.003906 Z M 51.125 39.003906 " clip-rule="nonzero"/></clipPath><clipPath id="a7521ca416"><path d="M 47.820312 39.003906 L 70.320312 39.003906 L 70.320312 45.753906 L 47.820312 45.753906 Z M 47.820312 39.003906 " clip-rule="nonzero"/></clipPath><clipPath id="da011fbab6"><path d="M 51.125 39.003906 L 66.953125 39.003906 C 67.828125 39.003906 68.671875 39.351562 69.289062 39.972656 C 69.910156 40.589844 70.257812 41.433594 70.257812 42.308594 C 70.257812 43.183594 69.910156 44.023438 69.289062 44.644531 C 68.671875 45.265625 67.828125 45.613281 66.953125 45.613281 L 51.125 45.613281 C 50.25 45.613281 49.410156 45.265625 48.789062 44.644531 C 48.167969 44.023438 47.820312 43.183594 47.820312 42.308594 C 47.820312 41.433594 48.167969 40.589844 48.789062 39.972656 C 49.410156 39.351562 50.25 39.003906 51.125 39.003906 Z M 51.125 39.003906 " clip-rule="nonzero"/></clipPath><clipPath id="de13e5c888"><path d="M 47.816406 14.996094 L 54.429688 14.996094 L 54.429688 60.386719 L 47.816406 60.386719 Z M 47.816406 14.996094 " clip-rule="nonzero"/></clipPath><clipPath id="fbbcadc98e"><path d="M 54.429688 18.300781 L 54.429688 57.066406 C 54.429688 57.945312 54.078125 58.785156 53.460938 59.40625 C 52.839844 60.023438 52 60.375 51.121094 60.375 C 50.246094 60.375 49.402344 60.023438 48.785156 59.40625 C 48.164062 58.785156 47.816406 57.945312 47.816406 57.066406 L 47.816406 18.300781 C 47.816406 17.425781 48.164062 16.582031 48.785156 15.964844 C 49.402344 15.34375 50.246094 14.996094 51.121094 14.996094 C 52 14.996094 52.839844 15.34375 53.460938 15.964844 C 54.078125 16.582031 54.429688 17.425781 54.429688 18.300781 Z M 54.429688 18.300781 " clip-rule="nonzero"/></clipPath><clipPath id="91cea88597"><path d="M 47.679688 15.007812 L 54.429688 15.007812 L 54.429688 60.355469 L 47.679688 60.355469 Z M 47.679688 15.007812 " clip-rule="nonzero"/></clipPath><clipPath id="a1051f6449"><path d="M 54.429688 18.3125 L 54.429688 57.050781 C 54.429688 57.929688 54.082031 58.769531 53.460938 59.390625 C 52.839844 60.007812 52 60.355469 51.125 60.355469 C 50.246094 60.355469 49.40625 60.007812 48.785156 59.390625 C 48.167969 58.769531 47.820312 57.929688 47.820312 57.050781 L 47.820312 18.3125 C 47.820312 17.4375 48.167969 16.59375 48.785156 15.976562 C 49.40625 15.355469 50.246094 15.007812 51.125 15.007812 C 52 15.007812 52.839844 15.355469 53.460938 15.976562 C 54.082031 16.59375 54.429688 17.4375 54.429688 18.3125 Z M 54.429688 18.3125 " clip-rule="nonzero"/></clipPath><clipPath id="c566e9a7e7"><path d="M 47 14 L 80 14 L 80 60 L 47 60 Z M 47 14 " clip-rule="nonzero"/></clipPath><clipPath id="d22fb7425b"><path d="M 51.953125 13.640625 L 80.789062 56.703125 L 75.292969 60.382812 L 46.457031 17.320312 Z M 51.953125 13.640625 " clip-rule="nonzero"/></clipPath><clipPath id="2a3d770099"><path d="M 53.792969 16.386719 L 78.945312 53.949219 C 79.433594 54.679688 79.613281 55.570312 79.441406 56.429688 C 79.269531 57.292969 78.765625 58.050781 78.039062 58.535156 C 77.308594 59.023438 76.414062 59.203125 75.554688 59.035156 C 74.695312 58.863281 73.9375 58.359375 73.449219 57.628906 L 48.296875 20.066406 C 47.808594 19.339844 47.632812 18.445312 47.800781 17.585938 C 47.972656 16.726562 48.476562 15.96875 49.207031 15.480469 C 49.933594 14.992188 50.828125 14.8125 51.6875 14.984375 C 52.546875 15.15625 53.304688 15.660156 53.792969 16.386719 Z M 53.792969 16.386719 " clip-rule="nonzero"/></clipPath><clipPath id="cc01c66992"><path d="M 47 14 L 80 14 L 80 60 L 47 60 Z M 47 14 " clip-rule="nonzero"/></clipPath><clipPath id="5bbc60b65b"><path d="M 51.953125 13.640625 L 80.746094 56.640625 L 75.136719 60.394531 L 46.34375 17.394531 Z M 51.953125 13.640625 " clip-rule="nonzero"/></clipPath><clipPath id="4146203006"><path d="M 51.960938 13.652344 L 81.132812 57.21875 L 75.246094 61.160156 L 46.070312 17.59375 Z M 51.960938 13.652344 " clip-rule="nonzero"/></clipPath><clipPath id="2e18a58b60"><path d="M 53.796875 16.398438 L 78.933594 53.933594 C 79.421875 54.660156 79.601562 55.554688 79.429688 56.414062 C 79.257812 57.273438 78.753906 58.03125 78.027344 58.515625 C 77.296875 59.003906 76.40625 59.183594 75.546875 59.011719 C 74.6875 58.84375 73.929688 58.339844 73.441406 57.609375 L 48.308594 20.074219 C 47.820312 19.347656 47.640625 18.453125 47.8125 17.59375 C 47.980469 16.734375 48.484375 15.976562 49.214844 15.488281 C 49.941406 15 50.835938 14.824219 51.695312 14.992188 C 52.554688 15.164062 53.3125 15.667969 53.796875 16.398438 Z M 53.796875 16.398438 " clip-rule="nonzero"/></clipPath><clipPath id="076b5b7073"><path d="M 73.03125 14.996094 L 79.644531 14.996094 L 79.644531 60.386719 L 73.03125 60.386719 Z M 73.03125 14.996094 " clip-rule="nonzero"/></clipPath><clipPath id="f929027492"><path d="M 79.644531 18.300781 L 79.644531 57.066406 C 79.644531 57.945312 79.296875 58.785156 78.675781 59.40625 C 78.054688 60.023438 77.214844 60.375 76.335938 60.375 C 75.460938 60.375 74.621094 60.023438 74 59.40625 C 73.378906 58.785156 73.03125 57.945312 73.03125 57.066406 L 73.03125 18.300781 C 73.03125 17.425781 73.378906 16.582031 74 15.964844 C 74.621094 15.34375 75.460938 14.996094 76.335938 14.996094 C 77.214844 14.996094 78.054688 15.34375 78.675781 15.964844 C 79.296875 16.582031 79.644531 17.425781 79.644531 18.300781 Z M 79.644531 18.300781 " clip-rule="nonzero"/></clipPath><clipPath id="964576cff8"><path d="M 73 15.007812 L 79.644531 15.007812 L 79.644531 60.355469 L 73 60.355469 Z M 73 15.007812 " clip-rule="nonzero"/></clipPath><clipPath id="bf35b79c88"><path d="M 79.644531 18.3125 L 79.644531 57.050781 C 79.644531 57.929688 79.296875 58.769531 78.675781 59.390625 C 78.058594 60.007812 77.214844 60.355469 76.339844 60.355469 C 75.464844 60.355469 74.621094 60.007812 74.003906 59.390625 C 73.382812 58.769531 73.035156 57.929688 73.035156 57.050781 L 73.035156 18.3125 C 73.035156 17.4375 73.382812 16.59375 74.003906 15.976562 C 74.621094 15.355469 75.464844 15.007812 76.339844 15.007812 C 77.214844 15.007812 78.058594 15.355469 78.675781 15.976562 C 79.296875 16.59375 79.644531 17.4375 79.644531 18.3125 Z M 79.644531 18.3125 " clip-rule="nonzero"/></clipPath><clipPath id="7db69a63ac"><path d="M 73 14 L 97 14 L 97 31 L 73 31 Z M 73 14 " clip-rule="nonzero"/></clipPath><clipPath id="4de4a6c821"><path d="M 75.054688 13.636719 L 97.417969 25.726562 L 94.273438 31.542969 L 71.910156 19.457031 Z M 75.054688 13.636719 " clip-rule="nonzero"/></clipPath><clipPath id="e03b8238f3"><path d="M 77.964844 15.210938 L 94.507812 24.152344 C 95.277344 24.570312 95.851562 25.277344 96.101562 26.117188 C 96.355469 26.957031 96.261719 27.863281 95.84375 28.632812 C 95.425781 29.40625 94.71875 29.980469 93.878906 30.230469 C 93.039062 30.480469 92.132812 30.386719 91.363281 29.96875 L 74.820312 21.027344 C 74.046875 20.609375 73.472656 19.90625 73.222656 19.0625 C 72.972656 18.222656 73.066406 17.316406 73.484375 16.546875 C 73.898438 15.773438 74.605469 15.199219 75.445312 14.949219 C 76.289062 14.699219 77.191406 14.792969 77.964844 15.210938 Z M 77.964844 15.210938 " clip-rule="nonzero"/></clipPath><clipPath id="752016f5ac"><path d="M 73 14 L 97 14 L 97 31 L 73 31 Z M 73 14 " clip-rule="nonzero"/></clipPath><clipPath id="6fa68e56f0"><path d="M 75.054688 13.636719 L 97.488281 25.765625 L 94.277344 31.703125 L 71.847656 19.574219 Z M 75.054688 13.636719 " clip-rule="nonzero"/></clipPath><clipPath id="097221aee6"><path d="M 75.0625 13.640625 L 97.503906 25.773438 L 94.132812 32.003906 L 71.691406 19.875 Z M 75.0625 13.640625 " clip-rule="nonzero"/></clipPath><clipPath id="d1ce19c0c7"><path d="M 77.96875 15.210938 L 94.5 24.148438 C 95.273438 24.566406 95.847656 25.273438 96.097656 26.113281 C 96.347656 26.953125 96.253906 27.855469 95.835938 28.628906 C 95.421875 29.398438 94.714844 29.972656 93.875 30.222656 C 93.035156 30.472656 92.128906 30.378906 91.359375 29.964844 L 74.828125 21.027344 C 74.054688 20.609375 73.480469 19.902344 73.230469 19.0625 C 72.980469 18.222656 73.074219 17.320312 73.492188 16.546875 C 73.90625 15.777344 74.613281 15.203125 75.453125 14.953125 C 76.292969 14.703125 77.199219 14.796875 77.96875 15.210938 Z M 77.96875 15.210938 " clip-rule="nonzero"/></clipPath><clipPath id="4d1a500bf7"><path d="M 74 23 L 97 23 L 97 45 L 74 45 Z M 74 23 " clip-rule="nonzero"/></clipPath><clipPath id="090cdd61db"><path d="M 73.035156 40.710938 L 93.296875 22.367188 L 97.738281 27.269531 L 77.472656 45.613281 Z M 73.035156 40.710938 " clip-rule="nonzero"/></clipPath><clipPath id="de018188d8"><path d="M 75.488281 38.492188 L 90.84375 24.589844 C 91.492188 24 92.351562 23.695312 93.226562 23.738281 C 94.101562 23.78125 94.925781 24.171875 95.511719 24.820312 C 96.101562 25.472656 96.410156 26.328125 96.363281 27.207031 C 96.320312 28.082031 95.929688 28.902344 95.28125 29.492188 L 79.925781 43.394531 C 79.273438 43.980469 78.417969 44.289062 77.542969 44.246094 C 76.664062 44.203125 75.84375 43.8125 75.253906 43.160156 C 74.664062 42.511719 74.359375 41.652344 74.402344 40.777344 C 74.445312 39.902344 74.835938 39.078125 75.488281 38.492188 Z M 75.488281 38.492188 " clip-rule="nonzero"/></clipPath><clipPath id="f5ceb68fbc"><path d="M 74 23 L 97 23 L 97 45 L 74 45 Z M 74 23 " clip-rule="nonzero"/></clipPath><clipPath id="1cacbc3544"><path d="M 73.035156 40.710938 L 93.050781 22.589844 L 97.582031 27.59375 L 77.566406 45.714844 Z M 73.035156 40.710938 " clip-rule="nonzero"/></clipPath><clipPath id="44fff126f2"><path d="M 73.039062 40.707031 L 93.523438 22.160156 L 98.28125 27.414062 L 77.792969 45.960938 Z M 73.039062 40.707031 " clip-rule="nonzero"/></clipPath><clipPath id="719d04a055"><path d="M 75.488281 38.488281 L 90.832031 24.597656 C 91.484375 24.007812 92.339844 23.703125 93.214844 23.746094 C 94.089844 23.789062 94.914062 24.179688 95.5 24.828125 C 96.089844 25.480469 96.394531 26.335938 96.351562 27.210938 C 96.308594 28.085938 95.917969 28.910156 95.269531 29.496094 L 79.921875 43.390625 C 79.273438 43.976562 78.417969 44.285156 77.542969 44.242188 C 76.667969 44.195312 75.84375 43.808594 75.253906 43.15625 C 74.667969 42.507812 74.363281 41.652344 74.40625 40.777344 C 74.449219 39.898438 74.839844 39.078125 75.488281 38.488281 Z M 75.488281 38.488281 " clip-rule="nonzero"/></clipPath><clipPath id="9d179bd9bd"><path d="M 72 37 L 96 37 L 96 60 L 72 60 Z M 72 37 " clip-rule="nonzero"/></clipPath><clipPath id="70c1a19436"><path d="M 91.863281 61.355469 L 71.585938 41.078125 L 76.261719 36.402344 L 96.539062 56.679688 Z M 91.863281 61.355469 " clip-rule="nonzero"/></clipPath><clipPath id="35d7566de1"><path d="M 89.523438 59.019531 L 73.925781 43.421875 C 73.308594 42.800781 72.960938 41.960938 72.960938 41.082031 C 72.960938 40.207031 73.308594 39.367188 73.925781 38.746094 C 74.546875 38.125 75.390625 37.777344 76.265625 37.777344 C 77.144531 37.777344 77.984375 38.125 78.605469 38.746094 L 94.199219 54.339844 C 94.820312 54.960938 95.167969 55.804688 95.167969 56.679688 C 95.167969 57.558594 94.820312 58.398438 94.199219 59.019531 C 93.582031 59.636719 92.738281 59.988281 91.863281 59.988281 C 90.984375 59.988281 90.144531 59.636719 89.523438 59.019531 Z M 89.523438 59.019531 " clip-rule="nonzero"/></clipPath><clipPath id="ad93d9578b"><path d="M 72 37 L 96 37 L 96 60 L 72 60 Z M 72 37 " clip-rule="nonzero"/></clipPath><clipPath id="417442d6b3"><path d="M 91.863281 61.355469 L 71.710938 41.203125 L 76.484375 36.429688 L 96.636719 56.582031 Z M 91.863281 61.355469 " clip-rule="nonzero"/></clipPath><clipPath id="d71b67528d"><path d="M 91.859375 61.351562 L 71.316406 40.808594 L 76.324219 35.800781 L 96.867188 56.339844 Z M 91.859375 61.351562 " clip-rule="nonzero"/></clipPath><clipPath id="49e2fb0917"><path d="M 89.519531 59.015625 L 73.933594 43.429688 C 73.316406 42.808594 72.96875 41.96875 72.96875 41.09375 C 72.96875 40.214844 73.316406 39.375 73.933594 38.753906 C 74.554688 38.136719 75.394531 37.789062 76.273438 37.789062 C 77.148438 37.789062 77.988281 38.136719 78.609375 38.753906 L 94.195312 54.34375 C 94.8125 54.960938 95.164062 55.800781 95.164062 56.679688 C 95.164062 57.554688 94.8125 58.394531 94.195312 59.015625 C 93.574219 59.636719 92.734375 59.984375 91.859375 59.984375 C 90.980469 59.984375 90.140625 59.636719 89.519531 59.015625 Z M 89.519531 59.015625 " clip-rule="nonzero"/></clipPath></defs><g clip-path="url(#553df90471)"><path fill="#ffc9c9" d="M 0 20.214844 L 150.035156 20.214844 L 150.035156 56.515625 L 0 56.515625 Z M 0 20.214844 " fill-opacity="1" fill-rule="nonzero"/></g><g clip-path="url(#ba9948072c)"><path stroke-linecap="butt" transform="matrix(0.75, 0, 0, 0.75, 0.021282, 20.213318)" fill="none" stroke-linejoin="miter" d="M -0.00233439 0.00203477 L 199.945599 0.00203477 L 199.945599 48.392664 L -0.00233439 48.392664 Z M -0.00233439 0.00203477 " stroke="#545454" stroke-width="4" stroke-opacity="1" stroke-miterlimit="4"/></g><g clip-path="url(#5505a40173)"><g clip-path="url(#a3955a3e46)"><path fill="#ff5757" d="M 47.820312 39.003906 L 70.269531 39.003906 L 70.269531 45.617188 L 47.820312 45.617188 Z M 47.820312 39.003906 " fill-opacity="1" fill-rule="nonzero"/></g></g><g clip-path="url(#a7521ca416)"><g clip-path="url(#da011fbab6)"><path stroke-linecap="butt" transform="matrix(0.75, 0.000000000000000093, -0.000000000000000093, 0.75, 47.821384, 39.003552)" fill="none" stroke-linejoin="miter" d="M 4.404822 0.000472794 L 25.50899 0.000472794 C 26.675657 0.000472794 27.800657 0.464014 28.623574 1.29214 C 29.451699 2.115056 29.915241 3.240056 29.915241 4.406723 C 29.915241 5.57339 29.451699 6.693182 28.623574 7.521307 C 27.800657 8.349432 26.675657 8.812974 25.50899 8.812974 L 4.404822 8.812974 C 3.238155 8.812974 2.118363 8.349432 1.290238 7.521307 C 0.462113 6.693182 -0.00142853 5.57339 -0.00142853 4.406723 C -0.00142853 3.240056 0.462113 2.115056 1.290238 1.29214 C 2.118363 0.464014 3.238155 0.000472794 4.404822 0.000472794 Z M 4.404822 0.000472794 " stroke="#545454" stroke-width="2" stroke-opacity="1" stroke-miterlimit="4"/></g></g><g clip-path="url(#de13e5c888)"><g clip-path="url(#fbbcadc98e)"><path fill="#ff5757" d="M 54.429688 14.996094 L 54.429688 60.386719 L 47.816406 60.386719 L 47.816406 14.996094 Z M 54.429688 14.996094 " fill-opacity="1" fill-rule="nonzero"/></g></g><g clip-path="url(#91cea88597)"><g clip-path="url(#a1051f6449)"><path stroke-linecap="butt" transform="matrix(0, 0.75, -0.75, 0, 54.428444, 15.007634)" fill="none" stroke-linejoin="miter" d="M 4.406488 -0.00165779 L 56.057534 -0.00165779 C 57.229409 -0.00165779 58.349201 0.461884 59.177326 1.290009 C 60.000243 2.118134 60.463784 3.237926 60.463784 4.404593 C 60.463784 5.576468 60.000243 6.696259 59.177326 7.524384 C 58.349201 8.347301 57.229409 8.810843 56.057534 8.810843 L 4.406488 8.810843 C 3.239821 8.810843 2.114821 8.347301 1.291905 7.524384 C 0.46378 6.696259 0.000237874 5.576468 0.000237874 4.404593 C 0.000237874 3.237926 0.46378 2.118134 1.291905 1.290009 C 2.114821 0.461884 3.239821 -0.00165779 4.406488 -0.00165779 Z M 4.406488 -0.00165779 " stroke="#545454" stroke-width="2" stroke-opacity="1" stroke-miterlimit="4"/></g></g><g clip-path="url(#c566e9a7e7)"><g clip-path="url(#d22fb7425b)"><g clip-path="url(#2a3d770099)"><path fill="#ff5757" d="M 51.953125 13.640625 L 80.789062 56.703125 L 75.292969 60.382812 L 46.457031 17.320312 Z M 51.953125 13.640625 " fill-opacity="1" fill-rule="nonzero"/></g></g></g><g clip-path="url(#cc01c66992)"><g clip-path="url(#5bbc60b65b)"><g clip-path="url(#4146203006)"><g clip-path="url(#2e18a58b60)"><path stroke-linecap="butt" transform="matrix(0.417303, 0.623184, -0.623184, 0.417303, 51.95974, 13.650692)" fill="none" stroke-linejoin="miter" d="M 4.407099 0.00314203 L 64.639869 0.00084837 C 65.807058 -0.00109437 66.931399 0.46346 67.755976 1.291423 C 68.580554 2.119386 69.046288 3.239854 69.043903 4.404144 C 69.042948 5.57566 68.581292 6.695673 67.753329 7.520251 C 66.929694 8.347727 65.809225 8.813461 64.63771 8.812506 L 4.407837 8.810472 C 3.240649 8.812415 2.116308 8.347861 1.29173 7.519898 C 0.464254 6.696262 -0.00148029 5.575794 -0.000525093 4.404278 C -0.00246783 3.23709 0.466414 2.115647 1.290049 1.288171 C 2.118012 0.463593 3.238481 -0.00214084 4.407099 0.00314203 Z M 4.407099 0.00314203 " stroke="#545454" stroke-width="2" stroke-opacity="1" stroke-miterlimit="4"/></g></g></g></g><g clip-path="url(#076b5b7073)"><g clip-path="url(#f929027492)"><path fill="#ff5757" d="M 79.644531 14.996094 L 79.644531 60.386719 L 73.03125 60.386719 L 73.03125 14.996094 Z M 79.644531 14.996094 " fill-opacity="1" fill-rule="nonzero"/></g></g><g clip-path="url(#964576cff8)"><g clip-path="url(#bf35b79c88)"><path stroke-linecap="butt" transform="matrix(0, 0.75, -0.75, 0, 79.644724, 15.007634)" fill="none" stroke-linejoin="miter" d="M 4.406488 0.000256594 L 56.057534 0.000256594 C 57.229409 0.000256594 58.349201 0.463798 59.177326 1.291923 C 60.000243 2.11484 60.463784 3.23984 60.463784 4.406507 C 60.463784 5.573174 60.000243 6.698174 59.177326 7.521091 C 58.349201 8.349216 57.229409 8.812757 56.057534 8.812757 L 4.406488 8.812757 C 3.239821 8.812757 2.114821 8.349216 1.291905 7.521091 C 0.46378 6.698174 0.000237874 5.573174 0.000237874 4.406507 C 0.000237874 3.23984 0.46378 2.11484 1.291905 1.291923 C 2.114821 0.463798 3.239821 0.000256594 4.406488 0.000256594 Z M 4.406488 0.000256594 " stroke="#545454" stroke-width="2" stroke-opacity="1" stroke-miterlimit="4"/></g></g><g clip-path="url(#7db69a63ac)"><g clip-path="url(#4de4a6c821)"><g clip-path="url(#e03b8238f3)"><path fill="#ff5757" d="M 75.054688 13.636719 L 97.417969 25.726562 L 94.273438 31.542969 L 71.910156 19.457031 Z M 75.054688 13.636719 " fill-opacity="1" fill-rule="nonzero"/></g></g></g><g clip-path="url(#752016f5ac)"><g clip-path="url(#6fa68e56f0)"><g clip-path="url(#097221aee6)"><g clip-path="url(#d1ce19c0c7)"><path stroke-linecap="butt" transform="matrix(0.659763, 0.35667, -0.35667, 0.659763, 75.062913, 13.641204)" fill="none" stroke-linejoin="miter" d="M 4.403625 -0.0013741 L 29.460401 -0.000607047 C 30.6326 -0.000787685 31.754422 0.464397 32.580178 1.290939 C 33.405933 2.117482 33.868131 3.235296 33.868311 4.407495 C 33.870597 5.572635 33.405412 6.694457 32.57887 7.520213 C 31.752327 8.345968 30.629932 8.810642 29.464791 8.812928 L 4.408015 8.812161 C 3.235816 8.812341 2.113994 8.347157 1.288238 7.520614 C 0.462483 6.694072 0.000285505 5.576258 0.000104866 4.404059 C -0.00218058 3.238918 0.463004 2.117097 1.289546 1.291341 C 2.116089 0.465586 3.238485 0.000911351 4.403625 -0.0013741 Z M 4.403625 -0.0013741 " stroke="#545454" stroke-width="2" stroke-opacity="1" stroke-miterlimit="4"/></g></g></g></g><g clip-path="url(#4d1a500bf7)"><g clip-path="url(#090cdd61db)"><g clip-path="url(#de018188d8)"><path fill="#ff5757" d="M 73.035156 40.710938 L 93.296875 22.367188 L 97.738281 27.269531 L 77.472656 45.613281 Z M 73.035156 40.710938 " fill-opacity="1" fill-rule="nonzero"/></g></g></g><g clip-path="url(#f5ceb68fbc)"><g clip-path="url(#1cacbc3544)"><g clip-path="url(#44fff126f2)"><g clip-path="url(#719d04a055)"><path stroke-linecap="butt" transform="matrix(0.556013, -0.503338, 0.503338, 0.556013, 73.037817, 40.707586)" fill="none" stroke-linejoin="miter" d="M 4.408091 -0.000979854 L 32.004554 -0.00147645 C 33.177181 -0.000785879 34.295426 0.463534 35.121887 1.288977 C 35.948347 2.114421 36.413521 3.238071 36.412464 4.403342 C 36.411774 5.575968 35.947454 6.694214 35.122011 7.520674 C 34.296567 8.347134 33.172917 8.812308 32.007646 8.811251 L 4.403827 8.812114 C 3.238556 8.811057 2.116816 8.350599 1.290356 7.525156 C 0.467391 6.695851 -0.00127831 5.576061 -0.000587734 4.403435 C 0.000468642 3.238164 0.464788 2.119919 1.290232 1.293459 C 2.119171 0.463137 3.239326 0.00182497 4.408091 -0.000979854 Z M 4.408091 -0.000979854 " stroke="#545454" stroke-width="2" stroke-opacity="1" stroke-miterlimit="4"/></g></g></g></g><g clip-path="url(#9d179bd9bd)"><g clip-path="url(#70c1a19436)"><g clip-path="url(#35d7566de1)"><path fill="#ff5757" d="M 91.863281 61.355469 L 71.585938 41.078125 L 76.261719 36.402344 L 96.539062 56.679688 Z M 91.863281 61.355469 " fill-opacity="1" fill-rule="nonzero"/></g></g></g><g clip-path="url(#ad93d9578b)"><g clip-path="url(#417442d6b3)"><g clip-path="url(#d71b67528d)"><g clip-path="url(#49e2fb0917)"><path stroke-linecap="butt" transform="matrix(-0.53033, -0.53033, 0.53033, -0.53033, 91.857739, 61.352113)" fill="none" stroke-linejoin="miter" d="M 4.407346 -0.00162169 L 33.796474 -0.00162169 C 34.963937 0.00206116 36.083523 0.4661 36.908481 1.291058 C 37.737122 2.119699 38.201161 3.239285 38.204843 4.406747 C 38.201161 5.57421 37.737122 6.693796 36.908481 7.522437 C 36.083523 8.347395 34.963937 8.811434 33.796474 8.815117 L 4.403664 8.811434 C 3.239884 8.811434 2.116615 8.351078 1.287974 7.522437 C 0.463016 6.697479 0.00266008 5.57421 -0.00102277 4.406747 C -0.00102277 3.235602 0.463016 2.116016 1.287974 1.291058 C 2.116615 0.462417 3.236201 -0.00162169 4.407346 -0.00162169 Z M 4.407346 -0.00162169 " stroke="#545454" stroke-width="2" stroke-opacity="1" stroke-miterlimit="4"/></g></g></g></g><g fill="#ff5757" fill-opacity="1"><g transform="translate(6.246947, 50.839809)"><g><path d="M 13.75 -26.609375 C 15.65625 -26.609375 17.28125 -26.257812 18.625 -25.5625 C 19.976562 -24.863281 21 -23.882812 21.6875 -22.625 C 22.382812 -21.375 22.734375 -19.921875 22.734375 -18.265625 C 22.734375 -16.597656 22.382812 -15.140625 21.6875 -13.890625 C 21 -12.640625 19.976562 -11.664062 18.625 -10.96875 C 17.28125 -10.269531 15.65625 -9.921875 13.75 -9.921875 L 8.71875 -9.921875 L 8.71875 0 L 3.453125 0 L 3.453125 -26.609375 Z M 13.046875 -14.09375 C 15.972656 -14.09375 17.4375 -15.484375 17.4375 -18.265625 C 17.4375 -21.046875 15.972656 -22.4375 13.046875 -22.4375 L 8.71875 -22.4375 L 8.71875 -14.09375 Z M 13.046875 -14.09375 "/></g></g></g><g fill="#ff5757" fill-opacity="1"><g transform="translate(25.532531, 50.839809)"><g><path d="M 2.890625 0 L 2.890625 -28.140625 L 7.9375 -28.140625 L 7.9375 -17.453125 L 8.3125 -17.390625 C 8.988281 -18.367188 9.8125 -19.125 10.78125 -19.65625 C 11.75 -20.195312 12.921875 -20.46875 14.296875 -20.46875 C 18.722656 -20.46875 20.9375 -17.953125 20.9375 -12.921875 L 20.9375 0 L 15.890625 0 L 15.890625 -12.28125 C 15.890625 -13.65625 15.613281 -14.648438 15.0625 -15.265625 C 14.519531 -15.890625 13.675781 -16.203125 12.53125 -16.203125 C 11.113281 -16.203125 9.992188 -15.726562 9.171875 -14.78125 C 8.347656 -13.84375 7.9375 -12.378906 7.9375 -10.390625 L 7.9375 0 Z M 2.890625 0 "/></g></g></g><g fill="#ff5757" fill-opacity="1"><g transform="translate(44.017685, 50.839809)"><g/></g></g><g fill="#ff5757" fill-opacity="1"><g transform="translate(47.776764, 50.839809)"><g/></g></g><g fill="#ff5757" fill-opacity="1"><g transform="translate(51.535843, 50.839809)"><g/></g></g><g fill="#ff5757" fill-opacity="1"><g transform="translate(55.294922, 50.839809)"><g/></g></g><g fill="#ff5757" fill-opacity="1"><g transform="translate(59.054001, 50.839809)"><g/></g></g><g fill="#ff5757" fill-opacity="1"><g transform="translate(62.81308, 50.839809)"><g/></g></g><g fill="#ff5757" fill-opacity="1"><g transform="translate(66.572159, 50.839809)"><g/></g></g><g fill="#ff5757" fill-opacity="1"><g transform="translate(70.331238, 50.839809)"><g/></g></g><g fill="#ff5757" fill-opacity="1"><g transform="translate(74.090317, 50.839809)"><g/></g></g><g fill="#ff5757" fill-opacity="1"><g transform="translate(77.849398, 50.839809)"><g/></g></g><g fill="#ff5757" fill-opacity="1"><g transform="translate(81.608478, 50.839809)"><g/></g></g><g fill="#ff5757" fill-opacity="1"><g transform="translate(85.367559, 50.839809)"><g/></g></g><g fill="#ff5757" fill-opacity="1"><g transform="translate(89.12664, 50.839809)"><g/></g></g><g fill="#ff5757" fill-opacity="1"><g transform="translate(92.886362, 50.839809)"><g><path d="M 2.890625 0 L 2.890625 -20.078125 L 7.734375 -20.078125 L 7.734375 -17.390625 L 8.125 -17.3125 C 8.78125 -18.394531 9.546875 -19.191406 10.421875 -19.703125 C 11.296875 -20.210938 12.421875 -20.46875 13.796875 -20.46875 C 15.316406 -20.46875 16.535156 -20.164062 17.453125 -19.5625 C 18.378906 -18.957031 19.054688 -18.078125 19.484375 -16.921875 L 19.859375 -16.921875 C 20.472656 -18.128906 21.269531 -19.019531 22.25 -19.59375 C 23.226562 -20.175781 24.445312 -20.46875 25.90625 -20.46875 C 30.0625 -20.46875 32.140625 -18.144531 32.140625 -13.5 L 32.140625 0 L 27.109375 0 L 27.109375 -12.875 C 27.109375 -14.050781 26.875 -14.898438 26.40625 -15.421875 C 25.945312 -15.941406 25.207031 -16.203125 24.1875 -16.203125 C 21.425781 -16.203125 20.046875 -14.351562 20.046875 -10.65625 L 20.046875 0 L 15 0 L 15 -12.875 C 15 -14.050781 14.765625 -14.898438 14.296875 -15.421875 C 13.828125 -15.941406 13.082031 -16.203125 12.0625 -16.203125 C 10.769531 -16.203125 9.757812 -15.765625 9.03125 -14.890625 C 8.300781 -14.023438 7.9375 -12.648438 7.9375 -10.765625 L 7.9375 0 Z M 2.890625 0 "/></g></g></g><g fill="#ff5757" fill-opacity="1"><g transform="translate(122.583623, 50.839809)"><g><path d="M 7.828125 0.375 C 6.535156 0.375 5.414062 0.140625 4.46875 -0.328125 C 3.53125 -0.796875 2.804688 -1.488281 2.296875 -2.40625 C 1.785156 -3.320312 1.53125 -4.425781 1.53125 -5.71875 C 1.53125 -6.90625 1.785156 -7.898438 2.296875 -8.703125 C 2.804688 -9.515625 3.59375 -10.175781 4.65625 -10.6875 C 5.726562 -11.207031 7.125 -11.609375 8.84375 -11.890625 C 10.050781 -12.078125 10.96875 -12.285156 11.59375 -12.515625 C 12.21875 -12.753906 12.632812 -13.019531 12.84375 -13.3125 C 13.0625 -13.601562 13.171875 -13.972656 13.171875 -14.421875 C 13.171875 -15.054688 12.945312 -15.546875 12.5 -15.890625 C 12.050781 -16.234375 11.304688 -16.40625 10.265625 -16.40625 C 9.148438 -16.40625 8.085938 -16.15625 7.078125 -15.65625 C 6.078125 -15.15625 5.203125 -14.5 4.453125 -13.6875 L 4.09375 -13.6875 L 1.984375 -16.875 C 3.003906 -18 4.25 -18.878906 5.71875 -19.515625 C 7.1875 -20.148438 8.785156 -20.46875 10.515625 -20.46875 C 13.179688 -20.46875 15.109375 -19.898438 16.296875 -18.765625 C 17.484375 -17.640625 18.078125 -16.039062 18.078125 -13.96875 L 18.078125 -5.25 C 18.078125 -4.34375 18.472656 -3.890625 19.265625 -3.890625 C 19.566406 -3.890625 19.863281 -3.945312 20.15625 -4.0625 L 20.40625 -3.984375 L 20.765625 -0.46875 C 20.492188 -0.289062 20.109375 -0.144531 19.609375 -0.03125 C 19.109375 0.0820312 18.5625 0.140625 17.96875 0.140625 C 16.769531 0.140625 15.832031 -0.0859375 15.15625 -0.546875 C 14.476562 -1.003906 13.992188 -1.726562 13.703125 -2.71875 L 13.328125 -2.75 C 12.335938 -0.664062 10.503906 0.375 7.828125 0.375 Z M 9.421875 -3.390625 C 10.585938 -3.390625 11.519531 -3.78125 12.21875 -4.5625 C 12.914062 -5.34375 13.265625 -6.429688 13.265625 -7.828125 L 13.265625 -9.859375 L 12.921875 -9.9375 C 12.617188 -9.695312 12.222656 -9.492188 11.734375 -9.328125 C 11.242188 -9.160156 10.535156 -9 9.609375 -8.84375 C 8.515625 -8.664062 7.726562 -8.351562 7.25 -7.90625 C 6.769531 -7.46875 6.53125 -6.84375 6.53125 -6.03125 C 6.53125 -5.164062 6.785156 -4.507812 7.296875 -4.0625 C 7.804688 -3.613281 8.515625 -3.390625 9.421875 -3.390625 Z M 9.421875 -3.390625 "/></g></g></g></svg>